<svg xmlns="http://www.w3.org/2000/svg" width="220.291" height="353.251" viewBox="0 0 220.291 353.251">
  <g id="Grupo_1898" data-name="Grupo 1898" transform="translate(-641.709 -3904)">
    <g id="Man" transform="translate(577 3893.002)">
      <g id="leg">
        <path id="Trazado_698" data-name="Trazado 698" d="M166,399.72v29.44h47.68s2.85-2.74-5.82-7c-8.18-4-13.12-7.87-17.22-17.23Z" transform="translate(0.793 -68)" fill="#683f1d"/>
        <path id="Trazado_699" data-name="Trazado 699" d="M165.07,336.527h30.06l1.56-161.057L167.49,177Z" fill="#a7caf0"/>
        <path id="Trazado_700" data-name="Trazado 700" d="M172.47,206.94c4-.64,5.57-2.1,5.57-2.1" fill="none" stroke="#83addf" stroke-linecap="round" stroke-linejoin="round" stroke-width="0.71"/>
        <path id="Trazado_701" data-name="Trazado 701" d="M188,183.89c-.24,7.56,2.42,16.76,5.73,19.18" fill="none" stroke="#83addf" stroke-linecap="round" stroke-linejoin="round" stroke-width="0.71"/>
      </g>
      <g id="leg-2" data-name="leg">
        <path id="Trazado_702" data-name="Trazado 702" d="M141,412v20.72h47.68s2.85-2.74-5.82-7c-8.18-4-13.11-7.87-17.22-17.22Z" transform="translate(0 -69.002)" fill="#683f1d"/>
        <path id="Trazado_703" data-name="Trazado 703" d="M188.69,432.75s2.85-2.74-5.82-7c-8.18-4-13.11-7.87-17.22-17.22" transform="translate(0 -69.002)" fill="none" stroke="#91613d" stroke-linecap="round" stroke-linejoin="round" stroke-width="0.71"/>
        <path id="Trazado_704" data-name="Trazado 704" d="M125.8,150.54c-4.17,40.792-2,68.226,1.71,103.044s9.72,86.069,9.72,86.069h31.39l2.31-174.394Z" transform="translate(0 5)" fill="#a7caf0"/>
        <line id="Línea_75" data-name="Línea 75" y1="129.797" x2="2.01" transform="translate(168.5 209.701)" fill="none" stroke="#83addf" stroke-linecap="round" stroke-linejoin="round" stroke-width="0.71"/>
      </g>
      <g id="upper_hand" data-name="upper hand">
        <path id="Trazado_705" data-name="Trazado 705" d="M285,122.91c0,9.11-3.41,17.22-8.73,22.48h0a20.69,20.69,0,0,1-12.55,6.12h0c-.32,0-.65.05-1,.06h-.77c-9.66,0-17.94-7.39-21.36-17.88a34.47,34.47,0,0,1-1.7-10.8c0-8.83,3.2-16.71,8.23-22a20.53,20.53,0,0,1,14.83-6.71C274.64,94.23,285,107.07,285,122.91Z" fill="#fed81d"/>
        <path id="Trazado_706" data-name="Trazado 706" d="M276.22,145.39a20.69,20.69,0,0,1-12.55,6.12h0c-.32,0-.65.05-1,.06h-.77c-9.66,0-17.94-7.39-21.36-17.88,10.66,6.25,14.83,19,33.55,12.47A14.494,14.494,0,0,0,276.22,145.39Z" fill="#fcc71f"/>
        <path id="Trazado_707" data-name="Trazado 707" d="M274.09,146.18a15,15,0,0,1-10.42,5.33h0c-.32,0-.65.05-1,.06h-.77a28.13,28.13,0,0,1-8.38-1.28c-16.92-5-35.91-17.34-48.19-25l-.17-.11c-2.89-1.81-5.39-3.34-7.4-4.46l-1-.53c-4.53-2.4-8.19-7.78-10.42-14-.43-1.22-.81-2.47-1.13-3.74-4-15.61.85-34,22.16-26.69h0c4,1.37,9.29,4.19,15.19,7.87a292.168,292.168,0,0,1,24.47,17.35c13.91,10.85,26.15,22,28.84,26.87A17.13,17.13,0,0,1,274.09,146.18Z" fill="#fed81d"/>
        <path id="Trazado_708" data-name="Trazado 708" d="M276.22,145.39a20.69,20.69,0,0,1-12.55,6.12h0c-.32,0-.65.05-1,.06h-.77a28.13,28.13,0,0,1-8.38-1.28c-16.92-5-35.91-17.34-48.19-25a.464.464,0,0,0-.17-.11c-2.89-1.81-5.39-3.34-7.4-4.46l-1-.53c-4.53-2.4-8.19-7.78-10.42-14-.43-1.22-.81-2.47-1.13-3.74,7-1.12,15.08-.45,24.1,3.44,3.45,1.5,9.89,4.24,6.26,9.11-4.57,6.13-.78,15.57,12.93,15.57a22.9,22.9,0,0,1,12,3.18c10.66,6.25,14.83,19,33.55,12.47C274.78,146,275.49,145.69,276.22,145.39Z" fill="#fcc71f"/>
        <path id="Trazado_709" data-name="Trazado 709" d="M222.6,83.59a35,35,0,0,0-9.94.66c-5.7,1.21-12.52,4.16-16.73,11.26a38.31,38.31,0,0,1-9.56,10.64c-5.77-16.19-2-38.32,21-30.43h0C211.41,77.09,216.7,79.91,222.6,83.59Z" fill="#ffe05c"/>
      </g>
      <g id="hand">
        <path id="Trazado_710" data-name="Trazado 710" d="M215.6,73.51c-1.8-.44.71-6.81,5.5-12.81,4.51-5.65,7.36-8.73,8.73-6.84C230.67,55,229.43,73,215.6,73.51Z" fill="#f7ad2b"/>
        <path id="Trazado_711" data-name="Trazado 711" d="M223.17,74.07c-5.74-8-9.52-14.56-12.21-16.72s-5.17-3.23-5.46-5.75a9.87,9.87,0,0,1,5-9c4-2.29,21.52,19.23,21.52,19.23S232.6,72.56,223.17,74.07Z" fill="#b25e47"/>
        <path id="Trazado_712" data-name="Trazado 712" d="M195,30.64c3.41-3.39,7-2.84,14.66,4.26s16.13,10.79,17.92,16.53c1.95,6.2-3.24,11.12-10.16,10.29-2.43-.29-6.24-.72-2.43-9.43l-10.24-8.61s-2.85,4.28-7.23,3.07C193,45.5,187.07,38.55,195,30.64Z" fill="#ddd" stroke="#ededed" stroke-linecap="round" stroke-linejoin="round" stroke-width="0.95"/>
        <path id="Trazado_713" data-name="Trazado 713" d="M216.73,44.84c1.65.85,6.21-5.73,4-7C217.85,36.1,215.08,44,216.73,44.84Z" fill="#b25e47" stroke="#934735" stroke-linecap="round" stroke-linejoin="round" stroke-width="0.71"/>
        <path id="Trazado_714" data-name="Trazado 714" d="M215,52.29a10.1,10.1,0,0,1,5.19-4.43" fill="none" stroke="#ededed" stroke-linecap="round" stroke-linejoin="round" stroke-width="0.95"/>
        <path id="Trazado_715" data-name="Trazado 715" d="M204.78,43.68A7.9,7.9,0,0,0,206,37.51" fill="none" stroke="#ededed" stroke-linecap="round" stroke-linejoin="round" stroke-width="0.95"/>
        <path id="Trazado_716" data-name="Trazado 716" d="M204.82,52.75c1.35,3.06,5.24-1.4,6.84-5.69,1.53-4.09,1.16-5-1.17-4.59S203,48.68,204.82,52.75Z" fill="#b25e47" stroke="#934735" stroke-linecap="round" stroke-linejoin="round" stroke-width="0.71"/>
        <path id="Trazado_717" data-name="Trazado 717" d="M208.24,39.23c1.85.94,7-6.32,4.54-7.74C209.49,29.58,206.37,38.29,208.24,39.23Z" fill="#b25e47" stroke="#934735" stroke-linecap="round" stroke-linejoin="round" stroke-width="0.71"/>
        <path id="Trazado_718" data-name="Trazado 718" d="M211.16,40.78c1.86.94,7-6.33,4.55-7.75C212.42,31.13,209.3,39.84,211.16,40.78Z" fill="#b25e47" stroke="#934735" stroke-linecap="round" stroke-linejoin="round" stroke-width="0.71"/>
        <path id="Trazado_719" data-name="Trazado 719" d="M214,43c1.77.9,6.69-6.06,4.35-7.42C215.22,33.7,212.23,42.05,214,43Z" fill="#b25e47" stroke="#934735" stroke-linecap="round" stroke-linejoin="round" stroke-width="0.71"/>
        <path id="Trazado_720" data-name="Trazado 720" d="M215.6,73.51c7.27,10.25,27.29,40,34.86,50,9.81,13,33.3,15.09,33.31-9.73,0-12.3-53.94-59.93-53.94-59.93S227.09,68.42,215.6,73.51Z" fill="#fed81d"/>
        <path id="Trazado_721" data-name="Trazado 721" d="M222.52,76.52c8.95-3,12-13.11,12-13.11" fill="none" stroke="#f7ad2b" stroke-linecap="round" stroke-linejoin="round" stroke-width="0.71"/>
        <path id="Trazado_722" data-name="Trazado 722" d="M226.68,58.24c13.35,18.45,18.11,31.05,14.93,36S231.28,96.5,232,92.36c1-5.17,9.59-6.49,6,7.41s-13.32,15.1-15,11.23c-2.39-5.34,7.56-11,8.59,3s-14.59,17.54-19,14,7.95-12.69,7.76,2.71-18.38,15.86-26.59,13.8" fill="none" stroke="#ededed" stroke-linecap="round" stroke-linejoin="round" stroke-width="1.91"/>
        <path id="Trazado_723" data-name="Trazado 723" d="M215.6,73.51c7.27,10.25,27.29,40,34.86,50a24.51,24.51,0,0,0,8.43,7" fill="none" stroke="#f7ad2b" stroke-linecap="round" stroke-linejoin="round" stroke-width="0.71"/>
      </g>
      <g id="upper_hand-2" data-name="upper hand">
        <path id="Trazado_724" data-name="Trazado 724" d="M106.29,157.75a23.14,23.14,0,0,1-9.18,18.73,19.68,19.68,0,0,1-11.61,3.83h-.06a19.28,19.28,0,0,1-7.61-1.6c-7.68-3.3-13.11-11.44-13.11-21v-.54a23.22,23.22,0,0,1,7.59-16.88,20.17,20.17,0,0,1,8.54-4.55,18.929,18.929,0,0,1,4.65-.58c8.24,0,15.37,5.21,18.73,12.76a23,23,0,0,1,1.62,5.18,23.33,23.33,0,0,1,.44,4.65Z" fill="#fed81d"/>
        <path id="Trazado_725" data-name="Trazado 725" d="M85.44,180.31a19.28,19.28,0,0,1-7.61-1.6c-7.68-3.3-13.11-11.44-13.11-21v-.54a23.22,23.22,0,0,1,7.59-16.88C70.64,162.28,73,173.61,85.44,180.31Z" fill="#fcc71f"/>
        <path id="Trazado_726" data-name="Trazado 726" d="M147.88,92.15c-.57,1.81-1.24,3.67-2,5.56s-1.45,3.49-2.28,5.26c-.27.56-.54,1.11-.82,1.67q-1.29,2.63-2.8,5.27c-.34.6-.67,1.19-1,1.77a207.249,207.249,0,0,1-20.1,27.7c-1.71,2-3.46,4-5.25,5.91l-1.26,1.34c-1.33,1.4-2.67,2.78-4,4.11h0c-.83.81-1.66,1.62-2.49,2.39-10.11,9.51-20.53,16.43-29,16.62a14.189,14.189,0,0,1-2.36-.13,10.64,10.64,0,0,1-6.17-2.87c-2.26-2.2-3.46-5.51-3.6-9.55-.23-7.54,3.26-17.61,10.51-27.66.4-.55.81-1.13,1.24-1.74,7.1-10.18,17.58-27.44,29.2-41.48,10.65-12.88,22.3-23.06,33.22-22.56a15.409,15.409,0,0,1,2.6.33C151,66.07,152.38,77.72,147.88,92.15Z" fill="#fed81d"/>
        <path id="Trazado_727" data-name="Trazado 727" d="M76.42,156.94a9.49,9.49,0,0,0,.43,12.82,14.19,14.19,0,0,1-2.36-.13,10.64,10.64,0,0,1-6.17-2.87c-2.26-2.2-3.46-5.51-3.6-9.55-.23-7.54,3.26-17.61,10.51-27.66.4-.55.81-1.13,1.24-1.74a16,16,0,0,1,4.38,8,24.76,24.76,0,0,1,.61,7.38C81.16,148.32,79.39,153.46,76.42,156.94Z" fill="#fcc71f"/>
        <path id="Trazado_728" data-name="Trazado 728" d="M145.9,97.71a101,101,0,0,1-6.92,14,207.249,207.249,0,0,1-20.1,27.7c-3.38,4-6.93,7.81-10.54,11.37" fill="none" stroke="#f7ad2b" stroke-linecap="round" stroke-linejoin="round" stroke-width="0.71"/>
        <path id="Trazado_729" data-name="Trazado 729" d="M147.88,92.15c-5.09-6.24-10.73-9.63-20-9.68-5.75,0-12.89,1.23-22.16,3.86,10.63-12.89,22.28-23.07,33.2-22.57a15.409,15.409,0,0,1,2.6.33C151,66.07,152.38,77.72,147.88,92.15Z" fill="#ffe05c"/>
      </g>
      <g id="body">
        <path id="Trazado_730" data-name="Trazado 730" d="M212.66,84.25c-.4,8.84-4.17,25.61-6.81,38.42-.17.85-.35,1.73-.52,2.62-3.28,16.88-6.58,42.16-6.6,46,0,12.75-8.84,10.45-33.53,9.76-12.16-.34-25.59-.79-35.62-2.79a44,44,0,0,1-8.27-2.37c-4.79-2-7.56-4.82-7.08-8.87a10.751,10.751,0,0,1,.31-1.47,120.73,120.73,0,0,0,4.34-26.15c.35-4.81.54-9.66.77-14.67.18-4.26.39-8.63.75-13.16.69-9.09,3.85-20,7.43-29.08,4.11-10.45,8.79-18.52,11-18.7h.14c4.1-.31,14.5,1.08,29.74,1.38a61.32,61.32,0,0,1,18.93,3.45c2.67.94,13.41,4.07,19.81,7.13h0a13.35,13.35,0,0,1,4.53,3C212.59,79.56,212.79,81.53,212.66,84.25Z" fill="#fed81d"/>
        <path id="Trazado_731" data-name="Trazado 731" d="M129.58,178.24a44,44,0,0,1-8.27-2.37c-4.79-2-7.56-4.82-7.08-8.87a10.75,10.75,0,0,1,.31-1.47,120.731,120.731,0,0,0,4.34-26.15c.35-4.81.54-9.66.77-14.67l21.1-20.07c5.79,9.68-5.33,28.41-12.74,33.22s-6.9,14.3,8.72,17.62C148.58,158,136.24,171.74,129.58,178.24Z" fill="#fcc71f"/>
        <path id="Trazado_732" data-name="Trazado 732" d="M222.6,83.59a35,35,0,0,0-9.94.66c-5.7,1.21-12.52,4.16-16.73,11.26a38.31,38.31,0,0,1-9.56,10.64c-10,7.6-23.39,9.9-32-4.34a83.178,83.178,0,0,0-6.54-9.66c-5.09-6.24-10.73-9.63-20-9.68-5.75,0-12.89,1.23-22.16,3.86C116.35,73.44,128,63.26,138.92,63.76c4.1-.31,14.5,1.08,29.74,1.38a61.32,61.32,0,0,1,18.93,3.45c2.67.94,13.41,4.07,19.81,7.13h0C211.41,77.09,216.7,79.91,222.6,83.59Z" fill="#ffe05c"/>
        <path id="Trazado_733" data-name="Trazado 733" d="M181.08,80.63s2.84,9.2,4,10l4.79.75a54.239,54.239,0,0,0,3.92-8.75l-5.11-7.25Z" fill="#683f1d"/>
        <path id="Trazado_734" data-name="Trazado 734" d="M185,90.65l-11,41.93s1.27,5.6,7.55,14.12c0,0,6.35-8.29,7.69-11.88l.53-43.42Z" fill="#683f1d"/>
        <path id="Trazado_735" data-name="Trazado 735" d="M173.07,61.82c-2.6.08-8,2.47-8,4.65s4.86,19.45,12.68,23.75c0,0,3-9,10.92-10.29Z" fill="#fff"/>
        <path id="Trazado_736" data-name="Trazado 736" d="M188.64,79.93a54.351,54.351,0,0,1,7.59,12.43s7.72-10.1,6.66-18.26c-.17-1.36-7-4.62-7-4.62Z" fill="#fff"/>
        <path id="Trazado_737" data-name="Trazado 737" d="M205.33,125.29c.17-.89.35-1.77.52-2.62,1.08-5.22,2.34-11.09,3.49-16.82.08-.41.15-.81.23-1.21" fill="none" stroke="#f7ad2b" stroke-linecap="round" stroke-linejoin="round" stroke-width="0.71"/>
        <path id="Trazado_738" data-name="Trazado 738" d="M198,71.4s-3.14,9.25-9.52,9.23c-10.41,0-16.91-16.72-16.91-16.72,3.2-13,2.88-19,2.88-19-.35-8.58,19.34-19.9,22.06,5.57l.24,3.38.84,11.81Z" fill="#b25e47"/>
        <path id="Trazado_739" data-name="Trazado 739" d="M197.55,65.67c-6.7-.22-12.82-3.71-13.14-11.81h12.3Z" fill="#914839"/>
      </g>
      <g id="head">
        <path id="Trazado_740" data-name="Trazado 740" d="M195.9,20.09c-.33,2.31-3.3,3.84-3.3,3.84l-6.83,10.18s-6.19,7.09-12.8,6.37a8.73,8.73,0,0,1-2.8-.81c-3.26-1.58-1.36-4.66-2-5.65s-2.27-1.13-2.67-3,2.57-1.71,1.31-3.7-2-3.62.09-5.07.08-2,1.41-4.31c1-1.79,2.75.38,3.38-2s2.54-1.52,3.91-1.74c1.74-.28.26-1.78,2.63-2.35,1.16-.28,1.12,1.08,2.48.17a4,4,0,0,1,4.1-.43c1.74,1.15,1.66-1.17,3.84-.45,1.54.51.56,1.68,2.68,2s2.07,1.58,2.24,2.91l.09.55C193.94,18.16,196.22,17.78,195.9,20.09Z" fill="#604730"/>
        <path id="Trazado_741" data-name="Trazado 741" d="M197.36,19c-.34,2.47-3.45,4.11-3.45,4.11L186.75,34s-6.49,7.59-13.42,6.82a3,3,0,0,0-.11-1.72c-.71-1.07-2.38-1.21-2.8-3.2s2.7-1.84,1.38-4-2.09-3.87.09-5.42.08-2.14,1.48-4.61c1.08-1.92,2.88.4,3.55-2.11s2.66-1.62,4.09-1.85c1.82-.31.27-1.91,2.77-2.52,1.2-.31,1.17,1.15,2.59.18s3.23-1.19,4.3-.46c1.82,1.23,1.74-1.25,4-.48a1,1,0,0,1,.21.07,1.351,1.351,0,0,0,.09.59C195.32,16.91,197.71,16.51,197.36,19Z" fill="#473526"/>
        <path id="Trazado_742" data-name="Trazado 742" d="M201.94,52.92C200.1,58.11,189,64,175.52,47.05a5.16,5.16,0,0,1-6.23-2.88c-2-3.83.86-9.44,7.5-6.74,1.21.49,1.88-2.57.42-4.71s-4-7.34,1.92-11.13,13.78-3.4,16.8,1.33a45.34,45.34,0,0,1,4.49,10,43.582,43.582,0,0,1,1.33,4.83C203,43.29,203.34,48.92,201.94,52.92Z" fill="#b25e47"/>
        <path id="Trazado_743" data-name="Trazado 743" d="M189.37,39.08c-.31,1.26-2.78,1.74-5.53,1.06s-4.71-2.24-4.4-3.5,2.79-1.74,5.53-1.07S189.68,37.82,189.37,39.08Z" fill="#a0503d"/>
        <path id="Trazado_744" data-name="Trazado 744" d="M201.75,37.77c-1.32.73-2.52.89-3.13.29-.88-.88-.09-3.16,1.8-5.12C200.93,34.51,201.38,36.13,201.75,37.77Z" fill="#a0503d"/>
        <path id="Trazado_745" data-name="Trazado 745" d="M181.74,30.34c.22,1.09,7.34-1,6.65-3.28C187.46,24,181.36,28.38,181.74,30.34Z" fill="#604730"/>
        <path id="Trazado_746" data-name="Trazado 746" d="M192.12,27c.15,1.41,5.86,1.43,5.84.52S191.78,23.83,192.12,27Z" fill="#604730"/>
        <path id="Trazado_747" data-name="Trazado 747" d="M187.15,33.62a1.28,1.28,0,1,0,.375-.915A1.29,1.29,0,0,0,187.15,33.62Z" fill="#683f1d"/>
        <path id="Trazado_748" data-name="Trazado 748" d="M194.58,32.33a1.29,1.29,0,1,0,.363-.938,1.29,1.29,0,0,0-.363.938Z" fill="#683f1d"/>
        <path id="Trazado_749" data-name="Trazado 749" d="M171.53,41.3c1-2.47,4.64-2,5.78.72" fill="none" stroke="#934735" stroke-linecap="round" stroke-linejoin="round" stroke-width="0.71"/>
        <path id="Trazado_750" data-name="Trazado 750" d="M176.55,40.85c-1.74-1.06-4.72,2.92,0,4.06" fill="none" stroke="#934735" stroke-linecap="round" stroke-linejoin="round" stroke-width="0.71"/>
        <path id="Trazado_751" data-name="Trazado 751" d="M175.52,47.05a9.36,9.36,0,0,0,3.17-1.55" fill="none" stroke="#934735" stroke-linecap="round" stroke-linejoin="round" stroke-width="0.71"/>
        <path id="Trazado_752" data-name="Trazado 752" d="M191.76,30.13c0,4.77,2.18,5.29,4.38,6.16,1.83.72,1.25,2.74.82,3.39" fill="none" stroke="#934735" stroke-linecap="round" stroke-linejoin="round" stroke-width="0.71"/>
        <path id="Trazado_753" data-name="Trazado 753" d="M189.37,42.79c3.73,0,6.56-.21,6.56-.21s-1.66,4.71-3.78,4.47S189.37,42.79,189.37,42.79Z" fill="#fff" stroke="#934735" stroke-linecap="round" stroke-linejoin="round" stroke-width="0.71"/>
      </g>
      <g id="hand-2" data-name="hand">
        <rect id="Rectángulo_219" data-name="Rectángulo 219" width="53.25" height="77.29" transform="translate(143.399 136.729) rotate(32.04)" fill="#ededed"/>
        <rect id="Rectángulo_220" data-name="Rectángulo 220" width="44.67" height="64.85" transform="translate(143.736 144.278) rotate(32.04)" fill="#f9f9f9"/>
        <path id="Trazado_754" data-name="Trazado 754" d="M172.64,152.07a5.59,5.59,0,0,0,1.14-1.32,5.432,5.432,0,1,0-9.28-5.65,5.56,5.56,0,0,0-.65,1.61L157,142.54l-5.24,8.59,22.5,13.71,5.23-8.6Z" fill="#ddd" stroke="#ededed" stroke-linecap="round" stroke-linejoin="round" stroke-width="0.95"/>
        <circle id="Elipse_44" data-name="Elipse 44" cx="2.62" cy="2.62" r="2.62" transform="translate(165.974 145.996) rotate(-13.75)" fill="#f9f9f9"/>
        <line id="Línea_76" data-name="Línea 76" x2="25.81" y2="16.16" transform="translate(145.9 154.75)" fill="none" stroke="#ddd" stroke-linecap="round" stroke-linejoin="round" stroke-width="0.95"/>
        <line id="Línea_77" data-name="Línea 77" x2="25.82" y2="16.16" transform="translate(143.32 159.31)" fill="none" stroke="#ddd" stroke-linecap="round" stroke-linejoin="round" stroke-width="0.95"/>
        <line id="Línea_78" data-name="Línea 78" x2="20.12" y2="12.59" transform="translate(140.75 163.87)" fill="none" stroke="#ddd" stroke-linecap="round" stroke-linejoin="round" stroke-width="0.95"/>
        <path id="Trazado_755" data-name="Trazado 755" d="M146.58,183.89c12.07,6,16,8.08,16.86,8.81,2.47,2.19,2.19,6.25,2.19,6.25s5.3,2.71,5.84,4.24-2.22,4.44-4,4.29c0,0-2.13,2.37-4.05,2.22,0,0-.7,3.14-3.31,3.29,0,0-.3,2.68-4,1.91s-19.71-13.7-19.71-13.7Z" fill="#b25e47"/>
        <path id="Trazado_756" data-name="Trazado 756" d="M147.93,184.56c-1.08,2.29-7.09,13.42-9.66,18.15-.71,1.32-1.16,2.14-1.16,2.14s-16.77-6.69-31.71-12.92c-8.89-3.73-17.13-7.29-20.8-9.18a55.551,55.551,0,0,1-6.77-4c-4.87-3.42-8.28-7.32-9.51-12s-.27-10.27,3.73-16.86a15.12,15.12,0,0,1,9.41-6.74,21.83,21.83,0,0,1,6.36-.62h.72a15.141,15.141,0,0,1,2.3.26,3.329,3.329,0,0,1,.69.12l.76.14,1.28.3h.05l.68.18.31.09c.27.07.53.15.79.24l.79.25.79.28.81.31a36.856,36.856,0,0,1,3.88,1.77c.23.11.46.22.68.35l1,.55.83.49h.06c1.09.66,2.18,1.38,3.28,2.17l.83.61h0a48.459,48.459,0,0,1,4.14,3.43c16.13,14.75,35.13,30,35.62,30A1.222,1.222,0,0,1,147.93,184.56Z" fill="#fed81d"/>
        <path id="Trazado_757" data-name="Trazado 757" d="M105.4,191.93c-8.89-3.73-17.13-7.29-20.8-9.18a55.55,55.55,0,0,1-6.77-4c-4.87-3.42-8.28-7.32-9.51-12s-.27-10.27,3.73-16.86a15.12,15.12,0,0,1,9.41-6.74c-.3,5.16-2.07,10.3-5,13.78a9.49,9.49,0,0,0,.43,12.82c2.65,2.88,7.16,4.71,13.17,3.91,2.47-.31,4.9.83,7.09,2.81C101.2,180.15,104.42,186.71,105.4,191.93Z" fill="#fcc71f"/>
        <path id="Trazado_758" data-name="Trazado 758" d="M87.1,142.52c7.6.1,16.73,3.76,25.38,11.66,16.19,14.81,35.27,30.08,35.62,30" fill="none" stroke="#f7ad2b" stroke-linecap="round" stroke-linejoin="round" stroke-width="0.71"/>
        <path id="Trazado_759" data-name="Trazado 759" d="M139.9,184.42c-2.46,4.84-7.05,13.5-7.05,13.5" fill="none" stroke="#f7ad2b" stroke-linecap="round" stroke-linejoin="round" stroke-width="0.71"/>
        <path id="Trazado_760" data-name="Trazado 760" d="M163.44,192.7c2.47,2.19,2.19,6.25,2.19,6.25s5.3,2.71,5.84,4.24-2.22,4.44-4,4.29c0,0-2.13,2.37-4.05,2.22,0,0-.7,3.14-3.31,3.29,0,0-.3,2.68-4,1.91" fill="none" stroke="#934735" stroke-linecap="round" stroke-linejoin="round" stroke-width="0.71"/>
        <line id="Línea_79" data-name="Línea 79" x1="4.93" y1="2.35" transform="translate(160.97 196.75)" fill="none" stroke="#934735" stroke-linecap="round" stroke-linejoin="round" stroke-width="0.71"/>
        <path id="Trazado_761" data-name="Trazado 761" d="M167.49,207.48a49.717,49.717,0,0,1-4.77-2.25" fill="none" stroke="#934735" stroke-linecap="round" stroke-linejoin="round" stroke-width="0.71"/>
        <path id="Trazado_762" data-name="Trazado 762" d="M163.44,209.7a14.28,14.28,0,0,1-2.82-1.55" fill="none" stroke="#934735" stroke-linecap="round" stroke-linejoin="round" stroke-width="0.71"/>
      </g>
    </g>
  </g>
</svg>
